<?xml version="1.0" ?><svg id="Layer_1" style="enable-background:new 0 0 74 74;" version="1.1" viewBox="0 0 74 74" xml:space="preserve" xmlns="http://www.w3.org/2000/svg" xmlns:xlink="http://www.w3.org/1999/xlink"><style type="text/css">
	.st0{fill:#2B3033;}
</style><g><path class="st0" d="M72.6,35.9C63.2,22.2,50.5,14.7,37,14.7S10.8,22.2,1.4,35.9c-0.5,0.7-0.5,1.6,0,2.3   C10.8,51.8,23.5,59.3,37,59.3s26.2-7.5,35.6-21.1C73.1,37.5,73.1,36.5,72.6,35.9z M37,55.3c-11.8,0-23-6.5-31.5-18.3   C14,25.2,25.2,18.7,37,18.7S60,25.2,68.5,37C60,48.8,48.8,55.3,37,55.3z"/><path class="st0" d="M37,24.4c-6.9,0-12.6,5.6-12.6,12.6S30.1,49.6,37,49.6S49.6,43.9,49.6,37S43.9,24.4,37,24.4z M37,45.6   c-4.7,0-8.6-3.9-8.6-8.6s3.9-8.6,8.6-8.6s8.6,3.9,8.6,8.6S41.7,45.6,37,45.6z"/><path class="st0" d="M37,31.1c-1.1,0-2,0.9-2,2s0.9,2,2,2c1,0,1.9,0.8,1.9,1.9c0,1.1,0.9,2,2,2s2-0.9,2-2   C42.9,33.8,40.2,31.1,37,31.1z"/></g></svg>