<svg xmlns="http://www.w3.org/2000/svg" width="16.22" height="30" viewBox="0 0 16.22 30"><defs><style>.a{opacity:0.653;}.b{fill:#e27866;}</style></defs><g class="a"><path class="b" d="M37.686.006,33.8,0c-4.371,0-7.2,2.9-7.2,7.383v3.4H22.689a.612.612,0,0,0-.612.612v4.932a.612.612,0,0,0,.612.612H26.6V29.388a.612.612,0,0,0,.612.612h5.1a.612.612,0,0,0,.612-.612V16.943H37.5a.612.612,0,0,0,.612-.612l0-4.932a.612.612,0,0,0-.612-.612H32.927V7.9c0-1.387.331-2.091,2.137-2.091h2.621A.612.612,0,0,0,38.3,5.2V.618A.612.612,0,0,0,37.686.006Z" transform="translate(-22.077)"/></g></svg>