<svg xmlns="http://www.w3.org/2000/svg" width="24.375" height="30" viewBox="0 0 24.375 30"><defs><style>.a{opacity:0.653;}.b{fill:#e27866;}</style></defs><g class="a"><path class="b" d="M60.6,0C52.377,0,48,5.269,48,11.014c0,2.664,1.489,5.987,3.872,7.041.362.163.559.094.639-.242.071-.255.384-1.483.536-2.063a.53.53,0,0,0-.128-.521A6.832,6.832,0,0,1,51.5,11.084c0-4.007,3.186-7.9,8.607-7.9,4.688,0,7.967,3.045,7.967,7.4,0,4.922-2.6,8.327-5.989,8.327a2.681,2.681,0,0,1-2.826-3.289c.534-2.166,1.583-4.495,1.583-6.057a2.326,2.326,0,0,0-2.408-2.559c-1.907,0-3.454,1.888-3.454,4.423a6.306,6.306,0,0,0,.57,2.7s-1.886,7.62-2.237,9.044c-.593,2.409.081,6.312.139,6.647a.2.2,0,0,0,.36.092,23.624,23.624,0,0,0,3.105-5.848c.233-.857,1.187-4.331,1.187-4.331a5.183,5.183,0,0,0,4.373,2.085c5.745,0,9.9-5.05,9.9-11.316C72.358,4.495,67.216,0,60.6,0Z" transform="translate(-48.004)"/></g></svg>