<svg xmlns="http://www.w3.org/2000/svg" width="36.065" height="30" viewBox="0 0 36.065 30"><defs><style>.a{fill:#e27866;opacity:0.653;}</style></defs><path class="a" d="M35.492,37.981a14.281,14.281,0,0,1-2.487.839,7.754,7.754,0,0,0,2.047-3.259h0a.407.407,0,0,0-.595-.474h0a14.349,14.349,0,0,1-3.8,1.571.969.969,0,0,1-.238.03,1.008,1.008,0,0,1-.666-.254,7.775,7.775,0,0,0-5.145-1.942,8.313,8.313,0,0,0-2.463.38A7.533,7.533,0,0,0,17.068,40.3a8.3,8.3,0,0,0-.184,2.863.278.278,0,0,1-.07.218.288.288,0,0,1-.214.1h-.028A20.388,20.388,0,0,1,2.558,35.989h0a.407.407,0,0,0-.666.052h0a7.784,7.784,0,0,0,1.265,9.451,6.968,6.968,0,0,1-1.773-.687h0a.407.407,0,0,0-.6.35h0a7.785,7.785,0,0,0,4.541,7.173l-.166,0a7,7,0,0,1-1.31-.125h0a.407.407,0,0,0-.463.523h0a7.793,7.793,0,0,0,6.155,5.3A14.348,14.348,0,0,1,1.5,60.47H.6a.6.6,0,0,0-.582.449.616.616,0,0,0,.295.681,21.341,21.341,0,0,0,10.724,2.891A21.634,21.634,0,0,0,20.2,62.547a20.237,20.237,0,0,0,6.705-5.025,22.029,22.029,0,0,0,4.106-6.876,21.722,21.722,0,0,0,1.4-7.526V43a1.323,1.323,0,0,1,.5-1.03A15.369,15.369,0,0,0,36,38.578h0a.407.407,0,0,0-.5-.6Z" transform="translate(0 -34.491)"/></svg>